<svg version="1.1"
     xmlns="http://www.w3.org/2000/svg"  
     xmlns:xlink="http://www.w3.org/1999/xlink"
     xmlns:svgjs="http://svgjs.com/svgjs" 
     preserveAspectRatio="xMidYMid meet"   width="400" 
     viewBox="0 0 400 280">
<text x="20" y="40.0" font-family="Arial" font-size="40" text-anchor="start" dominant-baseline="auto" fill="#000000" font-weight="normal">III</text>
<line x1="20" y1="60" x2="20" y2="260" stroke-width="2" stroke="#000000"/>
<line x1="80" y1="60" x2="80" y2="260" stroke-width="2" stroke="#000000"/>
<line x1="140" y1="60" x2="140" y2="260" stroke-width="2" stroke="#000000"/>
<line x1="200" y1="60" x2="200" y2="260" stroke-width="2" stroke="#000000"/>
<line x1="260" y1="60" x2="260" y2="260" stroke-width="2" stroke="#000000"/>
<line x1="320" y1="60" x2="320" y2="260" stroke-width="2" stroke="#000000"/>
<line x1="380" y1="60" x2="380" y2="260" stroke-width="2" stroke="#000000"/>
<line x1="20" y1="60" x2="380" y2="60" stroke-width="2" stroke="#000000"/>
<line x1="20" y1="100" x2="380" y2="100" stroke-width="2" stroke="#000000"/>
<line x1="20" y1="140" x2="380" y2="140" stroke-width="2" stroke="#000000"/>
<line x1="20" y1="180" x2="380" y2="180" stroke-width="2" stroke="#000000"/>
<line x1="20" y1="220" x2="380" y2="220" stroke-width="2" stroke="#000000"/>
<line x1="20" y1="260" x2="380" y2="260" stroke-width="2" stroke="#000000"/>

<circle r="15" cx="170.0" cy="60" fill="#000000" stroke-width="0" stroke="#000000"/>
<circle r="15" cx="290.0" cy="60" fill="#000000" stroke-width="0" stroke="#000000"/>
<circle r="15" cx="350.0" cy="60" fill="#000000" stroke-width="0" stroke="#000000"/>
<text x="350.0" y="60" font-family="Arial" font-size="15" text-anchor="middle" dominant-baseline="middle" fill="#FFFFFF" font-weight="bold">1</text>
<circle r="15" cx="170.0" cy="100" fill="#000000" stroke-width="0" stroke="#000000"/>
<circle r="15" cx="230.0" cy="100" fill="#000000" stroke-width="0" stroke="#000000"/>
<circle r="15" cx="350.0" cy="100" fill="#000000" stroke-width="0" stroke="#000000"/>
<circle r="15" cx="110.0" cy="140" fill="#000000" stroke-width="0" stroke="#000000"/>
<circle r="15" cx="170.0" cy="140" fill="#000000" stroke-width="0" stroke="#000000"/>
<text x="170.0" y="140" font-family="Arial" font-size="15" text-anchor="middle" dominant-baseline="middle" fill="#FFFFFF" font-weight="bold">1</text>
<circle r="15" cx="290.0" cy="140" fill="#000000" stroke-width="0" stroke="#000000"/>
<circle r="15" cx="50.0" cy="180" fill="#000000" stroke-width="0" stroke="#000000"/>
<circle r="15" cx="170.0" cy="180" fill="#000000" stroke-width="0" stroke="#000000"/>
<circle r="15" cx="290.0" cy="180" fill="#000000" stroke-width="0" stroke="#000000"/>
<circle r="15" cx="50.0" cy="220" fill="#000000" stroke-width="0" stroke="#000000"/>
<text x="50.0" y="220" font-family="Arial" font-size="15" text-anchor="middle" dominant-baseline="middle" fill="#FFFFFF" font-weight="bold">1</text>
<circle r="15" cx="170.0" cy="220" fill="#000000" stroke-width="0" stroke="#000000"/>
<circle r="15" cx="290.0" cy="220" fill="#000000" stroke-width="0" stroke="#000000"/>
<circle r="15" cx="50.0" cy="260" fill="#000000" stroke-width="0" stroke="#000000"/>
<circle r="15" cx="170.0" cy="260" fill="#000000" stroke-width="0" stroke="#000000"/>
<circle r="15" cx="290.0" cy="260" fill="#000000" stroke-width="0" stroke="#000000"/>


</svg>